<mxfile host="app.diagrams.net" agent="Mozilla/5.0 (Macintosh; Intel Mac OS X 10_15_7) AppleWebKit/537.36 (KHTML, like Gecko) Chrome/134.0.0.0 Safari/537.36" version="26.1.3">
  <diagram name="Page-1" id="FtE5lJsTBmFywXDnvyZT">
    <mxGraphModel dx="1078" dy="1210" grid="1" gridSize="11" guides="1" tooltips="1" connect="1" arrows="1" fold="1" page="1" pageScale="1" pageWidth="1100" pageHeight="1700" math="0" shadow="0">
      <root>
        <mxCell id="0" />
        <mxCell id="1" parent="0" />
        <mxCell id="wwv0m-fsKwh4-RPgZz54-1" value="" style="rounded=0;whiteSpace=wrap;html=1;dashed=1;fillColor=none;" parent="1" vertex="1">
          <mxGeometry x="220" y="176" width="616" height="572" as="geometry" />
        </mxCell>
        <mxCell id="wwv0m-fsKwh4-RPgZz54-2" value="" style="rounded=0;whiteSpace=wrap;html=1;dashed=1;fillColor=none;" parent="1" vertex="1">
          <mxGeometry x="22" y="176" width="154" height="572" as="geometry" />
        </mxCell>
        <mxCell id="wwv0m-fsKwh4-RPgZz54-3" value="" style="rounded=0;whiteSpace=wrap;html=1;dashed=1;fillColor=none;" parent="1" vertex="1">
          <mxGeometry x="880" y="176" width="165" height="572" as="geometry" />
        </mxCell>
        <mxCell id="wwv0m-fsKwh4-RPgZz54-5" value="Sources" style="rounded=0;whiteSpace=wrap;html=1;strokeColor=none;fontSize=22;" parent="1" vertex="1">
          <mxGeometry x="56" y="153.5" width="105" height="33" as="geometry" />
        </mxCell>
        <mxCell id="wwv0m-fsKwh4-RPgZz54-6" value="Data Warehouse" style="rounded=0;whiteSpace=wrap;html=1;strokeColor=none;fontSize=20;" parent="1" vertex="1">
          <mxGeometry x="437.5" y="150.5" width="170" height="36" as="geometry" />
        </mxCell>
        <mxCell id="wwv0m-fsKwh4-RPgZz54-7" value="Consume" style="rounded=0;whiteSpace=wrap;html=1;strokeColor=none;fontSize=20;" parent="1" vertex="1">
          <mxGeometry x="902.5" y="153.5" width="120" height="30.5" as="geometry" />
        </mxCell>
        <mxCell id="wwv0m-fsKwh4-RPgZz54-8" style="edgeStyle=orthogonalEdgeStyle;rounded=0;orthogonalLoop=1;jettySize=auto;html=1;exitX=0.5;exitY=1;exitDx=0;exitDy=0;" parent="1" edge="1">
          <mxGeometry relative="1" as="geometry">
            <mxPoint x="99" y="505.5" as="sourcePoint" />
            <mxPoint x="99" y="505.5" as="targetPoint" />
          </mxGeometry>
        </mxCell>
        <mxCell id="wwv0m-fsKwh4-RPgZz54-9" style="edgeStyle=orthogonalEdgeStyle;rounded=0;orthogonalLoop=1;jettySize=auto;html=1;exitX=0.5;exitY=1;exitDx=0;exitDy=0;" parent="1" edge="1">
          <mxGeometry relative="1" as="geometry">
            <mxPoint x="99" y="505.5" as="sourcePoint" />
            <mxPoint x="99" y="505.5" as="targetPoint" />
          </mxGeometry>
        </mxCell>
        <mxCell id="wwv0m-fsKwh4-RPgZz54-10" value="Bronze Layer" style="rounded=0;whiteSpace=wrap;html=1;fillColor=#ffe6cc;strokeColor=#d79b00;fontSize=15;" parent="1" vertex="1">
          <mxGeometry x="253" y="198" width="154" height="33" as="geometry" />
        </mxCell>
        <mxCell id="wwv0m-fsKwh4-RPgZz54-11" value="" style="rounded=0;whiteSpace=wrap;html=1;fillColor=none;strokeColor=#d79b00;fontSize=15;strokeWidth=1;" parent="1" vertex="1">
          <mxGeometry x="253" y="242" width="154" height="495" as="geometry" />
        </mxCell>
        <mxCell id="wwv0m-fsKwh4-RPgZz54-12" value="Silver Layer" style="rounded=0;whiteSpace=wrap;html=1;fillColor=#f5f5f5;strokeColor=#666666;fontSize=15;fontColor=#333333;" parent="1" vertex="1">
          <mxGeometry x="451" y="198" width="154" height="33" as="geometry" />
        </mxCell>
        <mxCell id="wwv0m-fsKwh4-RPgZz54-13" value="" style="rounded=0;whiteSpace=wrap;html=1;fillColor=none;strokeColor=#666666;fontSize=15;strokeWidth=1;fontColor=#333333;" parent="1" vertex="1">
          <mxGeometry x="451" y="242" width="154" height="495" as="geometry" />
        </mxCell>
        <mxCell id="wwv0m-fsKwh4-RPgZz54-14" value="Gold Layer" style="rounded=0;whiteSpace=wrap;html=1;fillColor=#fff2cc;strokeColor=#d6b656;fontSize=15;" parent="1" vertex="1">
          <mxGeometry x="649" y="198" width="154" height="33" as="geometry" />
        </mxCell>
        <mxCell id="wwv0m-fsKwh4-RPgZz54-15" value="" style="rounded=0;whiteSpace=wrap;html=1;fillColor=none;strokeColor=#d6b656;fontSize=15;strokeWidth=1;" parent="1" vertex="1">
          <mxGeometry x="649" y="242" width="154" height="495" as="geometry" />
        </mxCell>
        <mxCell id="wwv0m-fsKwh4-RPgZz54-18" value="CRM&lt;div&gt;&lt;br&gt;&lt;/div&gt;" style="image;aspect=fixed;html=1;points=[];align=center;fontSize=12;image=img/lib/azure2/general/Folder_Blank.svg;" parent="1" vertex="1">
          <mxGeometry x="71.89" y="264" width="54.21" height="44" as="geometry" />
        </mxCell>
        <mxCell id="wwv0m-fsKwh4-RPgZz54-20" value="" style="image;aspect=fixed;html=1;points=[];align=center;fontSize=12;image=img/lib/azure2/general/File.svg;" parent="1" vertex="1">
          <mxGeometry x="111" y="286" width="24.75" height="30.5" as="geometry" />
        </mxCell>
        <mxCell id="wwv0m-fsKwh4-RPgZz54-21" style="edgeStyle=orthogonalEdgeStyle;rounded=0;orthogonalLoop=1;jettySize=auto;html=1;exitX=0.5;exitY=1;exitDx=0;exitDy=0;" parent="1" edge="1">
          <mxGeometry relative="1" as="geometry">
            <mxPoint x="110" y="516.5" as="sourcePoint" />
            <mxPoint x="110" y="516.5" as="targetPoint" />
          </mxGeometry>
        </mxCell>
        <mxCell id="wwv0m-fsKwh4-RPgZz54-22" style="edgeStyle=orthogonalEdgeStyle;rounded=0;orthogonalLoop=1;jettySize=auto;html=1;exitX=0.5;exitY=1;exitDx=0;exitDy=0;" parent="1" edge="1">
          <mxGeometry relative="1" as="geometry">
            <mxPoint x="110" y="516.5" as="sourcePoint" />
            <mxPoint x="110" y="516.5" as="targetPoint" />
          </mxGeometry>
        </mxCell>
        <mxCell id="wwv0m-fsKwh4-RPgZz54-23" value="&lt;div&gt;ERP&lt;/div&gt;" style="image;aspect=fixed;html=1;points=[];align=center;fontSize=12;image=img/lib/azure2/general/Folder_Blank.svg;" parent="1" vertex="1">
          <mxGeometry x="71.89" y="385" width="54.21" height="44" as="geometry" />
        </mxCell>
        <mxCell id="wwv0m-fsKwh4-RPgZz54-24" value="" style="image;aspect=fixed;html=1;points=[];align=center;fontSize=12;image=img/lib/azure2/general/File.svg;" parent="1" vertex="1">
          <mxGeometry x="111" y="404.5" width="24.75" height="30.5" as="geometry" />
        </mxCell>
        <mxCell id="wwv0m-fsKwh4-RPgZz54-37" value="&lt;font style=&quot;font-size: 11px;&quot;&gt;&lt;b&gt;Object Type&lt;/b&gt;: CSV Files&lt;/font&gt;&lt;div&gt;&lt;font style=&quot;font-size: 11px;&quot;&gt;&lt;br&gt;&lt;/font&gt;&lt;/div&gt;&lt;div style=&quot;text-align: left;&quot;&gt;&lt;font style=&quot;font-size: 11px;&quot;&gt;&lt;b&gt;Interface&lt;/b&gt;: Files in Folder&lt;/font&gt;&lt;/div&gt;" style="rounded=0;whiteSpace=wrap;html=1;fillColor=none;strokeColor=none;" parent="1" vertex="1">
          <mxGeometry x="33" y="512" width="132" height="60" as="geometry" />
        </mxCell>
        <mxCell id="wwv0m-fsKwh4-RPgZz54-39" value="" style="endArrow=none;html=1;rounded=0;exitX=0.935;exitY=0.625;exitDx=0;exitDy=0;exitPerimeter=0;entryX=0.078;entryY=0.625;entryDx=0;entryDy=0;entryPerimeter=0;" parent="1" edge="1">
          <mxGeometry width="50" height="50" relative="1" as="geometry">
            <mxPoint x="165" y="473" as="sourcePoint" />
            <mxPoint x="33.02199999999994" y="473" as="targetPoint" />
          </mxGeometry>
        </mxCell>
        <mxCell id="wwv0m-fsKwh4-RPgZz54-47" value="Raw Data" style="html=1;verticalLabelPosition=bottom;align=center;labelBackgroundColor=#ffffff;verticalAlign=top;strokeWidth=2;strokeColor=#d79b00;shadow=0;dashed=0;shape=mxgraph.ios7.icons.data;fillColor=#ffe6cc;" parent="1" vertex="1">
          <mxGeometry x="302.5" y="365.4" width="66" height="69.6" as="geometry" />
        </mxCell>
        <mxCell id="wwv0m-fsKwh4-RPgZz54-48" value="Cleaned, Standardized&lt;div&gt;&amp;nbsp;Data&lt;/div&gt;" style="html=1;verticalLabelPosition=bottom;align=center;labelBackgroundColor=#ffffff;verticalAlign=top;strokeWidth=2;strokeColor=#666666;shadow=0;dashed=0;shape=mxgraph.ios7.icons.data;fillColor=#f5f5f5;fontColor=#333333;" parent="1" vertex="1">
          <mxGeometry x="500.5" y="361.2" width="66" height="69.6" as="geometry" />
        </mxCell>
        <mxCell id="wwv0m-fsKwh4-RPgZz54-49" value="Business - Ready Data" style="html=1;verticalLabelPosition=bottom;align=center;labelBackgroundColor=#ffffff;verticalAlign=top;strokeWidth=2;strokeColor=#d6b656;shadow=0;dashed=0;shape=mxgraph.ios7.icons.data;fillColor=#fff2cc;" parent="1" vertex="1">
          <mxGeometry x="687" y="361.2" width="66" height="69.6" as="geometry" />
        </mxCell>
        <mxCell id="wwv0m-fsKwh4-RPgZz54-50" value="" style="shape=singleArrow;whiteSpace=wrap;html=1;fillColor=#dae8fc;strokeColor=#6c8ebf;" parent="1" vertex="1">
          <mxGeometry x="176" y="374.55" width="81" height="42.9" as="geometry" />
        </mxCell>
        <mxCell id="wwv0m-fsKwh4-RPgZz54-53" value="" style="shape=singleArrow;whiteSpace=wrap;html=1;fillColor=#dae8fc;strokeColor=#6c8ebf;" parent="1" vertex="1">
          <mxGeometry x="396" y="374.55" width="81" height="42.9" as="geometry" />
        </mxCell>
        <mxCell id="wwv0m-fsKwh4-RPgZz54-57" value="" style="shape=singleArrow;whiteSpace=wrap;html=1;fillColor=#dae8fc;strokeColor=#6c8ebf;" parent="1" vertex="1">
          <mxGeometry x="583" y="374.55" width="81" height="42.9" as="geometry" />
        </mxCell>
        <mxCell id="wwv0m-fsKwh4-RPgZz54-58" value="" style="shape=singleArrow;whiteSpace=wrap;html=1;fillColor=#dae8fc;strokeColor=#6c8ebf;" parent="1" vertex="1">
          <mxGeometry x="814" y="374.55" width="81" height="42.9" as="geometry" />
        </mxCell>
        <mxCell id="wwv0m-fsKwh4-RPgZz54-59" value="&lt;font style=&quot;font-size: 11px;&quot;&gt;&lt;b&gt;Object Type&lt;/b&gt;: Table&lt;/font&gt;&lt;div&gt;&lt;span style=&quot;font-size: 11px;&quot;&gt;&lt;br&gt;&lt;/span&gt;&lt;div style=&quot;&quot;&gt;&lt;span style=&quot;font-size: 11px;&quot;&gt;&lt;b&gt;Load:&lt;/b&gt;&lt;/span&gt;&lt;/div&gt;&lt;div style=&quot;&quot;&gt;&lt;span style=&quot;font-size: 11px;&quot;&gt;&lt;b&gt;&lt;br&gt;&lt;/b&gt;&lt;/span&gt;&lt;/div&gt;&lt;div style=&quot;&quot;&gt;&lt;span style=&quot;font-size: 11px;&quot;&gt;&lt;span style=&quot;font-weight: bold; white-space: pre;&quot;&gt;&#x9;&lt;/span&gt;Batch Processing&lt;br&gt;&lt;/span&gt;&lt;/div&gt;&lt;div style=&quot;&quot;&gt;&lt;span style=&quot;font-size: 11px;&quot;&gt;&lt;span style=&quot;white-space: pre;&quot;&gt;&#x9;&lt;/span&gt;Full Load&lt;br&gt;&lt;/span&gt;&lt;/div&gt;&lt;div style=&quot;&quot;&gt;&lt;span style=&quot;font-size: 11px;&quot;&gt;&lt;span style=&quot;white-space: pre;&quot;&gt;&#x9;&lt;/span&gt;Truncate &amp;amp; Insert&lt;br&gt;&lt;/span&gt;&lt;/div&gt;&lt;div style=&quot;&quot;&gt;&lt;span style=&quot;font-size: 11px;&quot;&gt;&lt;br&gt;&lt;/span&gt;&lt;/div&gt;&lt;div style=&quot;&quot;&gt;No &lt;b&gt;Transformations&lt;/b&gt;&lt;/div&gt;&lt;div style=&quot;&quot;&gt;&lt;br&gt;&lt;/div&gt;&lt;div style=&quot;&quot;&gt;&lt;b&gt;Data Mod&lt;/b&gt;el: None(as-is)&lt;/div&gt;&lt;/div&gt;" style="rounded=0;whiteSpace=wrap;html=1;fillColor=none;strokeColor=none;align=left;" parent="1" vertex="1">
          <mxGeometry x="264" y="528" width="143" height="60" as="geometry" />
        </mxCell>
        <mxCell id="wwv0m-fsKwh4-RPgZz54-64" value="&lt;font style=&quot;font-size: 11px;&quot;&gt;&lt;b&gt;Object Type&lt;/b&gt;: Table&lt;/font&gt;&lt;div&gt;&lt;span style=&quot;font-size: 11px; background-color: transparent; color: light-dark(rgb(0, 0, 0), rgb(255, 255, 255));&quot;&gt;&lt;br&gt;&lt;/span&gt;&lt;/div&gt;&lt;div&gt;&lt;span style=&quot;font-size: 11px; background-color: transparent; color: light-dark(rgb(0, 0, 0), rgb(255, 255, 255));&quot;&gt;&lt;b&gt;Load:&lt;/b&gt;&lt;/span&gt;&lt;/div&gt;&lt;div&gt;&lt;span style=&quot;font-size: 11px;&quot;&gt;&lt;b&gt;&lt;br&gt;&lt;/b&gt;&lt;/span&gt;&lt;div style=&quot;&quot;&gt;&lt;span style=&quot;font-size: 11px;&quot;&gt;&lt;span style=&quot;font-weight: bold; white-space: pre;&quot;&gt;&#x9;&lt;/span&gt;Batch Processing&lt;br&gt;&lt;/span&gt;&lt;/div&gt;&lt;div style=&quot;&quot;&gt;&lt;span style=&quot;font-size: 11px;&quot;&gt;&lt;span style=&quot;white-space: pre;&quot;&gt;&#x9;&lt;/span&gt;Full Load&lt;br&gt;&lt;/span&gt;&lt;/div&gt;&lt;div style=&quot;&quot;&gt;&lt;span style=&quot;font-size: 11px;&quot;&gt;&lt;span style=&quot;white-space: pre;&quot;&gt;&#x9;&lt;/span&gt;Truncate &amp;amp; Insert&lt;br&gt;&lt;/span&gt;&lt;/div&gt;&lt;div style=&quot;&quot;&gt;&lt;span style=&quot;font-size: 11px;&quot;&gt;&lt;br&gt;&lt;/span&gt;&lt;/div&gt;&lt;div style=&quot;&quot;&gt;&lt;b&gt;Transformations:&lt;/b&gt;&lt;/div&gt;&lt;div style=&quot;&quot;&gt;&lt;b&gt;&lt;br&gt;&lt;/b&gt;&lt;/div&gt;&lt;div style=&quot;&quot;&gt;&lt;span style=&quot;white-space: pre;&quot;&gt;&#x9;&lt;/span&gt;Data Cleansing&lt;br&gt;&lt;/div&gt;&lt;div style=&quot;&quot;&gt;&lt;span style=&quot;white-space: pre;&quot;&gt;&#x9;&lt;/span&gt;Data Standrization&lt;br&gt;&lt;/div&gt;&lt;div style=&quot;&quot;&gt;&lt;span style=&quot;white-space: pre;&quot;&gt;&#x9;&lt;/span&gt;Data Normalization&lt;br&gt;&lt;/div&gt;&lt;div style=&quot;&quot;&gt;&lt;span style=&quot;white-space: pre;&quot;&gt;&#x9;&lt;/span&gt;Derived Columns&lt;br&gt;&lt;/div&gt;&lt;div style=&quot;&quot;&gt;&lt;span style=&quot;white-space: pre;&quot;&gt;&#x9;&lt;/span&gt;Data Enrichment&lt;br&gt;&lt;/div&gt;&lt;div style=&quot;&quot;&gt;&lt;br&gt;&lt;/div&gt;&lt;div style=&quot;&quot;&gt;&lt;b&gt;Data Mod&lt;/b&gt;el: None(as-is)&lt;/div&gt;&lt;/div&gt;" style="rounded=0;whiteSpace=wrap;html=1;fillColor=none;strokeColor=none;align=left;" parent="1" vertex="1">
          <mxGeometry x="462" y="572" width="143" height="60" as="geometry" />
        </mxCell>
        <mxCell id="wwv0m-fsKwh4-RPgZz54-66" style="edgeStyle=orthogonalEdgeStyle;rounded=0;orthogonalLoop=1;jettySize=auto;html=1;exitX=0.5;exitY=1;exitDx=0;exitDy=0;" parent="1" source="wwv0m-fsKwh4-RPgZz54-2" target="wwv0m-fsKwh4-RPgZz54-2" edge="1">
          <mxGeometry relative="1" as="geometry" />
        </mxCell>
        <mxCell id="wwv0m-fsKwh4-RPgZz54-72" value="&lt;font style=&quot;font-size: 11px;&quot;&gt;&lt;b&gt;Object Type&lt;/b&gt;: Table&lt;/font&gt;&lt;div&gt;&lt;span style=&quot;font-size: 11px; background-color: transparent; color: light-dark(rgb(0, 0, 0), rgb(255, 255, 255));&quot;&gt;&lt;br&gt;&lt;/span&gt;&lt;/div&gt;&lt;div&gt;&lt;span style=&quot;font-size: 11px; background-color: transparent; color: light-dark(rgb(0, 0, 0), rgb(255, 255, 255));&quot;&gt;No&lt;b&gt; Load&lt;/b&gt;&lt;/span&gt;&lt;div style=&quot;&quot;&gt;&lt;span style=&quot;font-size: 11px;&quot;&gt;&lt;span style=&quot;font-weight: bold; white-space: pre;&quot;&gt;&#x9;&lt;/span&gt;&lt;/span&gt;&lt;/div&gt;&lt;div style=&quot;&quot;&gt;&lt;b&gt;Transformations:&lt;/b&gt;&lt;/div&gt;&lt;div style=&quot;&quot;&gt;&lt;b&gt;&lt;br&gt;&lt;/b&gt;&lt;/div&gt;&lt;div style=&quot;&quot;&gt;&lt;span style=&quot;white-space: pre;&quot;&gt;&#x9;&lt;/span&gt;Data Integrations&lt;/div&gt;&lt;div style=&quot;&quot;&gt;&lt;span style=&quot;white-space: pre;&quot;&gt;&#x9;&lt;/span&gt;Aggregations&lt;br&gt;&lt;/div&gt;&lt;div style=&quot;&quot;&gt;&lt;span style=&quot;white-space: pre;&quot;&gt;&#x9;&lt;/span&gt;Business Logics&lt;br&gt;&lt;/div&gt;&lt;div style=&quot;&quot;&gt;&lt;br&gt;&lt;/div&gt;&lt;div style=&quot;&quot;&gt;&lt;b&gt;Data Model:&lt;/b&gt;&lt;/div&gt;&lt;/div&gt;&lt;div style=&quot;&quot;&gt;&lt;b&gt;&lt;br&gt;&lt;/b&gt;&lt;/div&gt;&lt;div style=&quot;&quot;&gt;&lt;span style=&quot;font-weight: bold; white-space: pre;&quot;&gt;&#x9;&lt;/span&gt;Star Schema&lt;b&gt;&amp;nbsp;&lt;br&gt;&lt;/b&gt;&lt;/div&gt;&lt;div style=&quot;&quot;&gt;&lt;span style=&quot;white-space: pre;&quot;&gt;&#x9;&lt;/span&gt;Flat Table&lt;br&gt;&lt;/div&gt;&lt;div style=&quot;&quot;&gt;&lt;span style=&quot;white-space: pre;&quot;&gt;&#x9;&lt;/span&gt;Aggregated Table&lt;br&gt;&lt;/div&gt;" style="rounded=0;whiteSpace=wrap;html=1;fillColor=none;strokeColor=none;align=left;" parent="1" vertex="1">
          <mxGeometry x="664" y="561" width="143" height="60" as="geometry" />
        </mxCell>
        <mxCell id="wwv0m-fsKwh4-RPgZz54-75" value="BI &amp;amp; Reporting" style="image;aspect=fixed;html=1;points=[];align=center;fontSize=12;image=img/lib/azure2/other/Azure_Monitor_Dashboard.svg;" parent="1" vertex="1">
          <mxGeometry x="932.91" y="264" width="59.18" height="55" as="geometry" />
        </mxCell>
        <mxCell id="wwv0m-fsKwh4-RPgZz54-76" value="Ad-Hoc&lt;div&gt;SQL Queries&lt;/div&gt;&lt;div&gt;&lt;br&gt;&lt;/div&gt;" style="sketch=0;html=1;aspect=fixed;strokeColor=none;shadow=0;fillColor=#3B8DF1;verticalAlign=top;labelPosition=center;verticalLabelPosition=bottom;shape=mxgraph.gcp2.search" parent="1" vertex="1">
          <mxGeometry x="935.27" y="392.25" width="54.45" height="55" as="geometry" />
        </mxCell>
        <mxCell id="PNM9ze61SmbpA5udUKpG-1" value="Machine learning" style="sketch=0;points=[[0,0,0],[0.25,0,0],[0.5,0,0],[0.75,0,0],[1,0,0],[0,1,0],[0.25,1,0],[0.5,1,0],[0.75,1,0],[1,1,0],[0,0.25,0],[0,0.5,0],[0,0.75,0],[1,0.25,0],[1,0.5,0],[1,0.75,0]];outlineConnect=0;fontColor=#232F3E;fillColor=#01A88D;strokeColor=#ffffff;dashed=0;verticalLabelPosition=bottom;verticalAlign=top;align=center;html=1;fontSize=13;fontStyle=0;aspect=fixed;shape=mxgraph.aws4.resourceIcon;resIcon=mxgraph.aws4.augmented_ai;" vertex="1" parent="1">
          <mxGeometry x="935.99" y="552" width="53" height="53" as="geometry" />
        </mxCell>
      </root>
    </mxGraphModel>
  </diagram>
</mxfile>
